<svg width="16" height="16" viewBox="0 0 16 16" fill="none" xmlns="http://www.w3.org/2000/svg">
<g id="Frame" clip-path="url(#clip0_48_1615)">
<path id="Vector" d="M8.00603 12.3438L11.1623 14.3375L8.00603 12.3438ZM8.00603 12.3438H7.99353H8.00603ZM14.5924 6.20109L14.5924 6.20109L14.5933 6.20375C14.6351 6.33197 14.6375 6.46978 14.6003 6.5994C14.5631 6.72892 14.4879 6.84434 14.3846 6.9308C14.3845 6.93086 14.3844 6.93092 14.3843 6.93099L11.56 9.28046L11.3796 9.43052L11.4356 9.65837L12.3294 13.2896L12.3293 13.2896L12.3315 13.2977C12.3576 13.3946 12.3612 13.4962 12.342 13.5946C12.3228 13.6931 12.2812 13.7858 12.2205 13.8657C12.1598 13.9456 12.0816 14.0105 11.9919 14.0555C11.9029 14.1001 11.8049 14.1239 11.7054 14.125C11.5851 14.124 11.4675 14.0886 11.3666 14.0231L11.3666 14.023L11.3625 14.0205L8.2063 12.0267L8.11455 11.9688H8.00603H7.99353H7.88478L7.7929 12.0269L4.86218 13.8828C4.86213 13.8829 4.86207 13.8829 4.86201 13.883C4.73581 13.9625 4.58874 14.0027 4.43962 13.9982C4.29092 13.9938 4.14691 13.9452 4.0259 13.8587C3.89986 13.7664 3.80439 13.6384 3.75183 13.4912C3.69912 13.3436 3.69202 13.1836 3.73147 13.0319L3.73197 13.0299L4.57572 9.71115L4.6335 9.48387L4.45445 9.33243L1.61695 6.93243L1.61695 6.93243L1.61523 6.93099C1.51174 6.84451 1.43653 6.72902 1.39929 6.5994C1.36205 6.46978 1.36449 6.33197 1.4063 6.20376L1.40669 6.20257C1.44699 6.07756 1.52388 5.96752 1.6274 5.88669C1.73082 5.80594 1.85606 5.75805 1.98696 5.74919C1.9871 5.74918 1.98723 5.74917 1.98737 5.74916L5.67388 5.51172L5.90974 5.49653L5.99778 5.2772L7.39778 1.7897L7.39779 1.78971L7.39878 1.78719C7.44639 1.66607 7.52927 1.56203 7.63668 1.48854C7.74369 1.41532 7.87014 1.37579 7.99978 1.375C8.12942 1.37579 8.25587 1.41532 8.36288 1.48854C8.47029 1.56203 8.55316 1.66607 8.60077 1.78719L8.60117 1.78819L9.97617 5.25694L10.0632 5.47659L10.299 5.49286L14.0115 5.74911L14.0137 5.74926C14.1445 5.75748 14.2697 5.80503 14.373 5.88566C14.4762 5.96628 14.5527 6.07623 14.5924 6.20109ZM4.21228 9.61875L3.36853 12.9375L1.96228 5.375C1.75634 5.38881 1.55929 5.4641 1.39661 5.59112C1.23393 5.71814 1.11311 5.89106 1.04978 6.0875C0.984741 6.28695 0.980941 6.50131 1.03887 6.70294C1.0968 6.90458 1.21379 7.08423 1.37478 7.21875L4.21228 9.61875Z" stroke="#29ABE2" stroke-width="0.75"/>
</g>
<defs>
<clipPath id="clip0_48_1615">
<rect width="16" height="16" fill="white"/>
</clipPath>
</defs>
</svg>
